# xmcd CD database file
#
# Track frame offsets:
#	150
#	13739
#	28586
#	45208
#	59420
#	75252
#	95855
#	111846
#	123686
#	141253
#	159605
#	171892
#	185693
#
# Disc length: 2720 seconds
#
# Revision: 2
# Processed by: cddbd v1.5.2PL0 Copyright (c) Steve Scherf et al.
# Submitted via: CDex 1.60beta1
#
DISCID=ae0a9e0d
DTITLE=Paul Burch and The WPA Ballclub - Pan-American Flash
DYEAR=1996
DGENRE=Country
TTITLE0=Monterey
TTITLE1=Losers Way To Get Along
TTITLE2=Living, Forgiving
TTITLE3=13 Nights
TTITLE4=Born To Wait
TTITLE5=Sage Advice
TTITLE6=Your Red Wagan
TTITLE7=Jackson, TN
TTITLE8=Sundown Is A Lonesome Time
TTITLE9=Harpers Ferry Blues
TTITLE10=I'm Your Daddy Now
TTITLE11=Baby I Ain't Gotta Do That No More
TTITLE12=Down Hill And Shady
EXTD=YEAR: 1996
EXTT0=
EXTT1=
EXTT2=
EXTT3=
EXTT4=
EXTT5=
EXTT6=
EXTT7=
EXTT8=
EXTT9=
EXTT10=
EXTT11=
EXTT12=
PLAYORDER=
